<!--?xml version="1.0" encoding="utf-8"?-->
<!-- Generator: Adobe Illustrator 22.0.1, SVG Export Plug-In . SVG Version: 6.00 Build 0)  -->
<svg version="1.1" id="_x31_0" xmlns="http://www.w3.org/2000/svg" xmlns:xlink="http://www.w3.org/1999/xlink" x="0px" y="0px" viewBox="0 0 512 512" style="width: 32px; height: 32px; opacity: 1;" xml:space="preserve">
<style type="text/css">
	.st0{fill:#374149;}
</style>
<g>
	<polygon class="st0" points="414.754,19.762 329.554,19.762 329.554,67.55 414.754,152.754 	" style="fill: rgb(75, 75, 75);"></polygon>
	<polygon class="st0" points="256.149,176.16 256.149,176.16 256.035,176.043 88.195,343.886 88.195,492.238 206.914,492.238 
		206.914,338.316 305.074,338.316 305.074,492.238 423.793,492.238 423.793,343.886 256.191,176.199 	" style="fill: rgb(75, 75, 75);"></polygon>
	<polygon class="st0" points="383.984,155.949 275.614,47.574 256,27.965 0,283.965 57.074,341.035 57.106,341.035 96.226,301.918 
		256,142.113 275.614,161.722 383.984,270.09 454.926,341.035 454.961,341.035 512,283.965 	" style="fill: rgb(75, 75, 75);"></polygon>
</g>
</svg>
