<!--?xml version="1.0" encoding="utf-8"?-->
<!-- Generator: Adobe Illustrator 18.1.1, SVG Export Plug-In . SVG Version: 6.00 Build 0)  -->

<svg version="1.1" id="_x31_0" xmlns="http://www.w3.org/2000/svg" xmlns:xlink="http://www.w3.org/1999/xlink" x="0px" y="0px" viewBox="0 0 512 512" style="width: 16px; height: 16px; opacity: 1;" xml:space="preserve">
<style type="text/css">
	.st0{fill:#374149;}
</style>
<g>
	<path class="st0" d="M494.629,273.168c11-8.859,17.371-22.122,17.371-36.363c0-25.883-21.019-46.902-46.844-46.902h-69.609
		l-43.035-0.051c26.972-35.312,52.882-79.867,40.438-108.922c-4.805-11.234-16.848-24.84-46.727-25.535h-1.969
		c-30.078,0-55.586,29.355-76.781,74c-3.473,7.293-7.18,15.114-11.406,23.625c-28.371,57.614-105.266,75.622-106.019,75.793
		l-14.418,3.184v163.637l8.34,5.442c56.687,36.828,137.75,55.531,240.934,55.531c18.125,0,31.5-0.637,49.332-1.797h6.832
		c25.828,0,46.844-21.02,46.844-46.844c0-8.512-2.199-16.676-6.485-23.855c8.859-8.742,13.84-20.614,13.84-33.238
		c0-9.207-2.722-18.18-7.762-25.762c7.645-8.574,11.93-19.692,11.93-31.27C499.434,286.602,497.813,279.594,494.629,273.168z" style="fill: rgb(241, 242, 238);"></path>
	<path class="st0" d="M102.141,226.164H9.074c-5.012,0-9.074,4.062-9.074,9.074v150.07c0,5.015,4.062,9.078,9.074,9.078h93.066
		c5.011,0,9.074-4.062,9.074-9.078v-150.07C111.215,230.226,107.152,226.164,102.141,226.164z M80.102,362.703v0.566H31.114V257.278
		h48.988V362.703z" style="fill: rgb(241, 242, 238);"></path>
</g>
</svg>
