<!--?xml version="1.0" encoding="utf-8"?-->
<!-- Generator: Adobe Illustrator 18.1.1, SVG Export Plug-In . SVG Version: 6.00 Build 0)  -->

<svg version="1.1" id="_x31_0" xmlns="http://www.w3.org/2000/svg" xmlns:xlink="http://www.w3.org/1999/xlink" x="0px" y="0px" viewBox="0 0 512 512" style="width: 16px; height: 16px; opacity: 1;" xml:space="preserve">
<style type="text/css">
	.st0{fill:#374149;}
</style>
<g>
	<path class="st0" d="M343.719,167.957H168.282c-6.903,0-12.495,5.596-12.495,12.495s5.592,12.495,12.495,12.495h175.438
		c6.899,0,12.495-5.596,12.495-12.495S350.618,167.957,343.719,167.957z" style="fill: rgb(241, 242, 238);"></path>
	<path class="st0" d="M343.719,229.043H168.282c-6.903,0-12.495,5.596-12.495,12.495s5.592,12.491,12.495,12.491h175.438
		c6.899,0,12.495-5.592,12.495-12.491S350.618,229.043,343.719,229.043z" style="fill: rgb(241, 242, 238);"></path>
	<path class="st0" d="M268.554,290.126H168.282c-6.903,0-12.495,5.592-12.495,12.494c0,6.899,5.592,12.491,12.495,12.491h100.272
		c6.899,0,12.495-5.592,12.495-12.491C281.049,295.718,275.453,290.126,268.554,290.126z" style="fill: rgb(241, 242, 238);"></path>
	<path class="st0" d="M433.214,61.82C385.426,21.954,322.49,0,256,0S126.574,21.954,78.786,61.82
		C28.147,104.062,0.262,161.078,0.262,222.358c0,98.037,74.15,183.937,179.726,212.396l28.889,50.039
		C218.597,501.632,236.559,512,256,512c19.438,0,37.403-10.372,47.12-27.206l28.892-50.039
		c105.572-28.459,179.726-114.355,179.726-212.396C511.738,161.078,483.85,104.062,433.214,61.82z M444.132,282.059
		c-1.674,3.668-3.434,7.305-5.401,10.848c-1.264,2.267-2.72,4.445-4.101,6.658c-1.214,1.951-2.338,3.946-3.638,5.846
		c-1.662,2.431-3.519,4.753-5.318,7.11c-1.249,1.627-2.404,3.31-3.715,4.898c-1.584,1.924-3.34,3.738-5.018,5.608
		c-1.748,1.943-3.422,3.937-5.268,5.814c-1.065,1.082-2.243,2.084-3.336,3.142c-2.666,2.572-5.315,5.155-8.156,7.586
		c-0.094,0.082-0.199,0.156-0.297,0.238c-27.475,23.418-63.091,40.166-103.039,47.034l-27.277,47.248l-13.614,23.422l-40.798-70.67
		c-39.881-6.857-75.43-23.562-102.887-46.917c-0.148-0.126-0.316-0.238-0.464-0.367c-2.728-2.334-5.264-4.819-7.828-7.282
		c-1.21-1.166-2.502-2.267-3.672-3.462c-1.71-1.736-3.254-3.586-4.878-5.381c-1.819-2.006-3.704-3.965-5.409-6.041
		c-1.186-1.436-2.224-2.958-3.352-4.426c-1.932-2.505-3.902-4.986-5.674-7.578c-1.206-1.764-2.247-3.622-3.379-5.424
		c-1.471-2.35-3.009-4.663-4.351-7.067c-1.927-3.47-3.644-7.036-5.291-10.63c-0.359-0.777-0.792-1.522-1.139-2.306
		c-7.863-17.966-12.159-37.364-12.159-57.602c0-92.757,90.138-167.946,201.329-167.946c111.187,0,201.326,75.189,201.326,167.946
		c0,20.242-4.297,39.643-12.163,57.61C444.85,280.678,444.456,281.353,444.132,282.059z" style="fill: rgb(241, 242, 238);"></path>
</g>
</svg>
